<!--?xml version="1.0" standalone="no"?-->
              <svg id="sw-js-blob-svg" viewBox="0 0 100 100" xmlns="http://www.w3.org/2000/svg" version="1.1">
                    <defs> 
                        <linearGradient id="sw-gradient" x1="0" x2="1" y1="1" y2="0">
                            <stop id="stop1" stop-color="rgba(248, 117, 55, 1)" offset="0%"></stop>
                            <stop id="stop2" stop-color="rgba(251, 168, 31, 1)" offset="100%"></stop>
                        </linearGradient>
                    </defs>
                <path fill="url(#sw-gradient)" d="M12.5,-21.4C18.8,-18.1,28.2,-19.9,33,-17.2C37.8,-14.5,38,-7.2,36.3,-1C34.6,5.3,31,10.5,27.9,16.3C24.9,22,22.4,28.2,17.8,33.9C13.3,39.6,6.6,44.7,1.2,42.6C-4.2,40.5,-8.4,31.2,-11.6,24.8C-14.9,18.3,-17.1,14.7,-21.1,11.1C-25.2,7.4,-31.2,3.7,-33.6,-1.4C-36,-6.5,-34.9,-13,-30.7,-16.5C-26.5,-19.9,-19.3,-20.3,-13.6,-24C-8,-27.7,-4,-34.7,-0.4,-33.9C3.1,-33.2,6.3,-24.7,12.5,-21.4Z" width="100%" height="100%" transform="translate(50 50)" stroke-width="0" style="transition: all 0.3s ease 0s;"></path>
              </svg>