<!--?xml version="1.0" standalone="no"?-->
              <svg id="sw-js-blob-svg" viewBox="0 0 100 100" xmlns="http://www.w3.org/2000/svg" version="1.1">
                    <defs> 
                        <linearGradient id="sw-gradient" x1="0" x2="1" y1="1" y2="0">
                            <stop id="stop1" stop-color="rgba(248, 117, 55, 1)" offset="0%"></stop>
                            <stop id="stop2" stop-color="rgba(251, 168, 31, 1)" offset="100%"></stop>
                        </linearGradient>
                    </defs>
                <path fill="url(#sw-gradient)" d="M13.4,-26.7C17,-21.1,19.2,-16.8,23,-12.5C26.8,-8.2,32.3,-4.1,35.6,1.9C38.9,8,40.2,16,37.1,21.4C34,26.9,26.4,29.8,19.5,30.1C12.6,30.4,6.3,28.1,1,26.4C-4.3,24.6,-8.5,23.4,-14.9,22.8C-21.3,22.2,-29.8,22.2,-32.6,18.5C-35.4,14.8,-32.5,7.4,-32.1,0.2C-31.7,-6.9,-33.8,-13.8,-31.4,-18.1C-28.9,-22.4,-21.9,-24.1,-15.9,-28.3C-9.9,-32.4,-5,-39,0,-39C4.9,-39,9.8,-32.2,13.4,-26.7Z" width="100%" height="100%" transform="translate(50 50)" stroke-width="0" style="transition: all 0.3s ease 0s;" stroke="url(#sw-gradient)"></path>
              </svg>