<!--?xml version="1.0" standalone="no"?-->
              <svg id="sw-js-blob-svg" viewBox="0 0 100 100" xmlns="http://www.w3.org/2000/svg" version="1.1">
                    <defs> 
                        <linearGradient id="sw-gradient" x1="0" x2="1" y1="1" y2="0">
                            <stop id="stop1" stop-color="rgba(248, 117, 55, 1)" offset="0%"></stop>
                            <stop id="stop2" stop-color="rgba(251, 168, 31, 1)" offset="100%"></stop>
                        </linearGradient>
                    </defs>
                <path fill="url(#sw-gradient)" d="M14.5,-24.5C20.2,-21.7,27.2,-20.7,31.7,-17C36.2,-13.2,38.1,-6.6,37.2,-0.6C36.2,5.4,32.2,10.9,27.8,14.8C23.3,18.6,18.4,20.9,13.7,22.8C9,24.6,4.5,26,-1.9,29.3C-8.3,32.6,-16.6,37.9,-19.7,35.1C-22.8,32.3,-20.7,21.5,-20.9,14.3C-21.2,7.1,-23.8,3.6,-26.2,-1.4C-28.5,-6.3,-30.6,-12.6,-29.4,-18.1C-28.2,-23.7,-23.7,-28.5,-18.3,-31.4C-12.8,-34.3,-6.4,-35.2,-1,-33.4C4.4,-31.7,8.8,-27.2,14.5,-24.5Z" width="100%" height="100%" transform="translate(50 50)" stroke-width="0" style="transition: all 0.3s ease 0s;"></path>
              </svg>